<svg width="44" height="44" viewBox="0 0 44 44" fill="none" xmlns="http://www.w3.org/2000/svg">
<path d="M36.8587 21.6341H36.6051C35.5634 16.9783 31.4058 13.4819 26.442 13.4819H23.2717V12.3225C24.8478 11.7609 25.9891 10.2663 25.9891 8.50001C25.9891 6.25364 24.1594 4.42393 21.913 4.42393C19.6666 4.42393 17.8369 6.25364 17.8369 8.50001C17.8369 10.2663 18.9782 11.7609 20.5543 12.3225V13.4819H17.384C12.4203 13.4819 8.26267 16.9783 7.221 21.6341H6.96738C5.47281 21.6341 4.24998 22.8569 4.24998 24.3515V27.0689C4.24998 28.5634 5.47281 29.7862 6.96738 29.7862H7.46556C8.5344 33.1196 11.2337 35.7102 14.6214 36.6522C14.3677 37.1866 14.2138 37.7663 14.2138 38.3913C14.2138 39.1431 14.8206 39.75 15.5724 39.75H28.2536C29.0054 39.75 29.6123 39.1431 29.6123 38.3913C29.6123 37.7663 29.4583 37.1775 29.2047 36.6522C32.5924 35.7192 35.2916 33.1196 36.3605 29.7862H36.8587C38.3532 29.7862 39.5761 28.5634 39.5761 27.0689V24.3515C39.5761 22.8569 38.3532 21.6341 36.8587 21.6341ZM21.913 7.14132C22.6648 7.14132 23.2717 7.7482 23.2717 8.50001C23.2717 9.25182 22.6648 9.85871 21.913 9.85871C21.1612 9.85871 20.5543 9.25182 20.5543 8.50001C20.5543 7.7482 21.1612 7.14132 21.913 7.14132ZM26.442 34.3152H17.384C13.1359 34.3152 9.68477 30.8641 9.68477 26.616V23.8986C9.68477 19.6504 13.1359 16.1993 17.384 16.1993H26.442C30.6902 16.1993 34.1413 19.6504 34.1413 23.8986V26.616C34.1413 30.8641 30.6902 34.3152 26.442 34.3152Z" fill="black"/>
<path d="M16.9311 19.8225C15.4366 19.8225 14.2138 21.0453 14.2138 22.5399V25.2573C14.2138 26.7518 15.4366 27.9746 16.9311 27.9746C18.4257 27.9746 19.6485 26.7518 19.6485 25.2573V22.5399C19.6485 21.0453 18.4257 19.8225 16.9311 19.8225Z" fill="black"/>
<path d="M26.8949 19.8225C25.4003 19.8225 24.1775 21.0453 24.1775 22.5399V25.2573C24.1775 26.7518 25.4003 27.9746 26.8949 27.9746C28.3895 27.9746 29.6123 26.7518 29.6123 25.2573V22.5399C29.6123 21.0453 28.3895 19.8225 26.8949 19.8225Z" fill="black"/>
<path d="M12.4293 7.06885L15.1467 7.97465C15.2917 8.01994 15.4366 8.04711 15.5724 8.04711C16.1431 8.04711 16.6685 7.6848 16.8587 7.11414C17.0942 6.39856 16.7138 5.62864 15.9982 5.39313L13.2808 4.48733C12.5743 4.25182 11.8043 4.63226 11.5598 5.34784C11.3152 6.06342 11.7047 6.83335 12.4203 7.06885H12.4293Z" fill="black"/>
<path d="M12.8551 12.5761C13 12.5761 13.1449 12.558 13.2808 12.5036L15.9982 11.5978C16.7138 11.3623 17.0942 10.5924 16.8587 9.87682C16.6232 9.16124 15.8532 8.78081 15.1377 9.01632L12.4203 9.92211C11.7047 10.1576 11.3243 10.9275 11.5598 11.6431C11.75 12.2138 12.2753 12.5761 12.846 12.5761H12.8551Z" fill="black"/>
<path d="M28.2536 8.04711C28.3985 8.04711 28.5435 8.029 28.6793 7.97465L31.3967 7.06885C32.1123 6.83335 32.4927 6.06342 32.2572 5.34784C32.0217 4.63226 31.2518 4.25182 30.5362 4.48733L27.8188 5.39313C27.1032 5.62864 26.7228 6.39856 26.9583 7.11414C27.1485 7.6848 27.6739 8.04711 28.2445 8.04711H28.2536Z" fill="black"/>
<path d="M27.8279 11.5978L30.5453 12.5036C30.6902 12.5489 30.8351 12.5761 30.971 12.5761C31.5416 12.5761 32.067 12.2138 32.2572 11.6431C32.4927 10.9275 32.1123 10.1576 31.3967 9.92211L28.6793 9.01632C27.9728 8.78081 27.1938 9.16124 26.9583 9.87682C26.7228 10.5924 27.1032 11.3623 27.8188 11.5978H27.8279Z" fill="black"/>
</svg>
